<svg version="1.1" viewBox="0.0 0.0 4096.0 4096.0" fill="none" stroke="none" stroke-linecap="square" stroke-miterlimit="10" xmlns:xlink="http://www.w3.org/1999/xlink" xmlns="http://www.w3.org/2000/svg"><clipPath id="g8ac83bc009_0_12.0"><path d="m0 0l4096.0 0l0 4096.0l-4096.0 0l0 -4096.0z" clip-rule="nonzero"/></clipPath><g clip-path="url(#g8ac83bc009_0_12.0)"><path fill="#000000" fill-opacity="0.0" d="m0 0l4096.0 0l0 4096.0l-4096.0 0z" fill-rule="evenodd"/><path fill="#ffeb3b" d="m811.7237 679.4074l0 0c18.264893 -18.264893 47.878113 -18.264893 66.14307 0l2538.7073 2538.7073c8.77124 8.770996 13.69873 20.667236 13.69873 33.071533c0 12.404297 -4.92749 24.300293 -13.69873 33.071533l-132.28198 132.28223c-18.264893 18.264893 -47.878174 18.264893 -66.14307 0l-2538.7075 -2538.7075c-18.264893 -18.264893 -18.264893 -47.878113 0 -66.143005z" fill-rule="evenodd"/><path fill="#ffeb3b" d="m3416.5662 811.69214l0 0c18.264893 18.264893 18.264893 47.878174 0 66.14307l-2538.7073 2538.7073c-8.771118 8.77124 -20.667297 13.69873 -33.071533 13.69873c-12.404236 0 -24.300415 -4.92749 -33.071533 -13.69873l-132.2821 -132.28198c-18.264893 -18.265137 -18.264893 -47.878174 0 -66.14307l2538.7075 -2538.7075c18.264893 -18.264893 47.878174 -18.264893 66.14307 0z" fill-rule="evenodd"/></g></svg>