<svg version="1.1" viewBox="0.0 0.0 4096.0 4096.0" fill="none" stroke="none" stroke-linecap="square" stroke-miterlimit="10" xmlns:xlink="http://www.w3.org/1999/xlink" xmlns="http://www.w3.org/2000/svg"><clipPath id="p.0"><path d="m0 0l4096.0 0l0 4096.0l-4096.0 0l0 -4096.0z" clip-rule="nonzero"/></clipPath><g clip-path="url(#p.0)"><path fill="#000000" fill-opacity="0.0" d="m0 0l4096.0 0l0 4096.0l-4096.0 0z" fill-rule="evenodd"/><path fill="#ffeb3b" d="m1480.1173 695.7819l0 0c0 -27.280762 22.115356 -49.39624 49.39624 -49.39624l1870.7274 0c13.100586 0 25.664795 5.2042847 34.928467 14.467834c9.263428 9.263611 14.467773 21.827759 14.467773 34.928406l0 197.57904c0 27.280823 -22.115479 49.39624 -49.39624 49.39624l-1870.7274 0c-27.280884 0 -49.39624 -22.115417 -49.39624 -49.39624z" fill-rule="evenodd"/><path fill="#ffeb3b" d="m646.36664 650.78656l455.74066 0l148.18567 148.18579l-148.18567 148.18573l-455.74066 0l148.18579 -148.18573z" fill-rule="evenodd"/><path fill="#ffeb3b" d="m1480.1173 3198.2307l0 0c0 -27.280762 22.115356 -49.39624 49.39624 -49.39624l1870.7274 0c13.100586 0 25.664795 5.2043457 34.928467 14.467773c9.263428 9.263672 14.467773 21.82788 14.467773 34.928467l0 197.5791c0 27.280762 -22.115479 49.39624 -49.39624 49.39624l-1870.7274 0c-27.280884 0 -49.39624 -22.115479 -49.39624 -49.39624z" fill-rule="evenodd"/><path fill="#ffeb3b" d="m646.36664 3153.2354l455.74066 0l148.18567 148.18579l-148.18567 148.18579l-455.74066 0l148.18579 -148.18579z" fill-rule="evenodd"/><path fill="#ffeb3b" d="m1487.6869 1947.0063l0 0c0 -27.280762 22.115356 -49.39624 49.39624 -49.39624l1870.7274 0c13.100586 0 25.664795 5.2042236 34.928223 14.467773c9.263672 9.263672 14.468018 21.827759 14.468018 34.928467l0 197.5791c0 27.280762 -22.115479 49.39624 -49.39624 49.39624l-1870.7274 0c-27.280884 0 -49.39624 -22.115479 -49.39624 -49.39624z" fill-rule="evenodd"/><path fill="#ffeb3b" d="m653.9362 1902.011l455.74054 0l148.18579 148.18579l-148.18579 148.18579l-455.74054 0l148.18573 -148.18579z" fill-rule="evenodd"/></g></svg>