<svg width="1200" height="400" version="1.1" viewBox="0 0 317.5 105.83" xmlns="http://www.w3.org/2000/svg">
<text style="font-family:'Noto Sans';font-size:88.194px;font-weight:300;line-height:1.25;shape-inside:url(#rect875);white-space:pre" xml:space="preserve"/>
<text style="font-family:'Noto Sans';font-size:4.2333px;font-weight:300;line-height:1.25;shape-inside:url(#rect881);white-space:pre" xml:space="preserve"/>
<g transform="translate(1.3719)">
<path d="m5.2427 0h304.27c3.6645 0 6.6146 2.9501 6.6146 6.6146v92.604c0 3.6645-2.9501 6.6146-6.6146 6.6146h-304.27c-3.6645 0-6.6146-2.9501-6.6146-6.6146v-92.604c0-3.6645 2.9501-6.6146 6.6146-6.6146z" style="fill:#fff;opacity:.99"/>
<g transform="matrix(.34934 0 0 .34934 .48984 -2.5418)"></g>
<g transform="translate(-.8784)">
<g style="stroke-width:.26458" aria-label="ONTEUR">
<path d="m128.84 52.892c0 3.556-0.57621 6.7004-1.7286 9.4333-1.1524 2.7329-2.8975 4.873-5.2352 6.4206-2.3048 1.5475-5.2023 2.3213-8.6924 2.3213-3.4572 0-6.3547-0.77376-8.6924-2.3213-2.3048-1.5475-4.0334-3.6877-5.1858-6.4206-1.1524-2.7329-1.7286-5.8937-1.7286-9.4827 0-3.556 0.59267-6.684 1.778-9.3839 1.2183-2.7329 3.0127-4.8566 5.3834-6.3712 2.3707-1.5475 5.2682-2.3213 8.6924-2.3213 4.9389 0 8.7418 1.6134 11.409 4.8401 2.667 3.1938 4.0005 7.6224 4.0005 13.286zm-29.288-0.04939c0 3.2267 0.49388 6.0748 1.4817 8.5443s2.4859 4.4121 4.4944 5.8279c2.0414 1.3829 4.6096 2.0743 7.7047 2.0743 3.095 0 5.6468-0.69144 7.6553-2.0743s3.4902-3.2926 4.445-5.7291c0.98778-2.4694 1.4817-5.334 1.4817-8.5937 0-5.1694-1.1524-9.1863-3.4572-12.051-2.2719-2.8646-5.581-4.2968-9.9272-4.2968-3.128 0-5.7126 0.69144-7.7541 2.0743s-3.5725 3.3091-4.5932 5.7785c-1.0207 2.4365-1.5311 5.2517-1.5311 8.4455z" style="color-rendering:auto;color:#000000;dominant-baseline:auto;font-feature-settings:normal;font-variant-alternates:normal;font-variant-caps:normal;font-variant-east-asian:normal;font-variant-ligatures:normal;font-variant-numeric:normal;font-variant-position:normal;font-variation-settings:normal;image-rendering:auto;inline-size:0;isolation:auto;mix-blend-mode:normal;shape-margin:0;shape-padding:0;shape-rendering:auto;solid-color:#000000;stop-color:#000000;text-decoration-color:#000000;text-decoration-line:none;text-decoration-style:solid;text-indent:0;text-orientation:mixed;text-transform:none;white-space:normal"/>
<path d="m164.63 70.573h-1.778l-21.385-31.708h-0.0988c0.0329 1.35 0.0494 2.667 0.0494 3.9511 0.0329 1.2512 0.0494 2.5847 0.0494 4.0005v23.756h-1.8274v-35.264h1.8274l21.287 31.609h0.0988c0-1.1195-0.0165-2.3871-0.0494-3.8029s-0.0494-2.7329-0.0494-3.9511v-23.855h1.8768z" style="color-rendering:auto;color:#000000;dominant-baseline:auto;font-feature-settings:normal;font-variant-alternates:normal;font-variant-caps:normal;font-variant-east-asian:normal;font-variant-ligatures:normal;font-variant-numeric:normal;font-variant-position:normal;font-variation-settings:normal;image-rendering:auto;inline-size:0;isolation:auto;mix-blend-mode:normal;shape-margin:0;shape-padding:0;shape-rendering:auto;solid-color:#000000;stop-color:#000000;text-decoration-color:#000000;text-decoration-line:none;text-decoration-style:solid;text-indent:0;text-orientation:mixed;text-transform:none;white-space:normal"/>
<path d="m186.04 70.573h-1.9262v-33.486h-11.557v-1.778h25.09v1.778h-11.606z" style="color-rendering:auto;color:#000000;dominant-baseline:auto;font-feature-settings:normal;font-variant-alternates:normal;font-variant-caps:normal;font-variant-east-asian:normal;font-variant-ligatures:normal;font-variant-numeric:normal;font-variant-position:normal;font-variation-settings:normal;image-rendering:auto;inline-size:0;isolation:auto;mix-blend-mode:normal;shape-margin:0;shape-padding:0;shape-rendering:auto;solid-color:#000000;stop-color:#000000;text-decoration-color:#000000;text-decoration-line:none;text-decoration-style:solid;text-indent:0;text-orientation:mixed;text-transform:none;white-space:normal"/>
<path d="m224.64 70.573h-19.163v-35.264h19.163v1.778h-17.237v14.026h16.249v1.778h-16.249v15.903h17.237z" style="color-rendering:auto;color:#000000;dominant-baseline:auto;font-feature-settings:normal;font-variant-alternates:normal;font-variant-caps:normal;font-variant-east-asian:normal;font-variant-ligatures:normal;font-variant-numeric:normal;font-variant-position:normal;font-variation-settings:normal;image-rendering:auto;inline-size:0;isolation:auto;mix-blend-mode:normal;shape-margin:0;shape-padding:0;shape-rendering:auto;solid-color:#000000;stop-color:#000000;text-decoration-color:#000000;text-decoration-line:none;text-decoration-style:solid;text-indent:0;text-orientation:mixed;text-transform:none;white-space:normal"/>
<path d="m261.02 58.127c0 4.2474-1.1853 7.4742-3.556 9.6802-2.3707 2.1731-5.5645 3.2597-9.5814 3.2597-4.1157 0-7.3096-1.1195-9.5814-3.3584-2.239-2.239-3.3584-5.4657-3.3584-9.6802v-22.719h1.9262v22.67c0 3.7206 0.95485 6.5358 2.8646 8.4455 1.9426 1.9097 4.692 2.8646 8.248 2.8646 3.4572 0 6.1736-0.92193 8.1492-2.7658 2.0085-1.8439 3.0127-4.5438 3.0127-8.0998v-23.114h1.8768z" style="color-rendering:auto;color:#000000;dominant-baseline:auto;font-feature-settings:normal;font-variant-alternates:normal;font-variant-caps:normal;font-variant-east-asian:normal;font-variant-ligatures:normal;font-variant-numeric:normal;font-variant-position:normal;font-variation-settings:normal;image-rendering:auto;inline-size:0;isolation:auto;mix-blend-mode:normal;shape-margin:0;shape-padding:0;shape-rendering:auto;solid-color:#000000;stop-color:#000000;text-decoration-color:#000000;text-decoration-line:none;text-decoration-style:solid;text-indent:0;text-orientation:mixed;text-transform:none;white-space:normal"/>
<path d="m281.6 35.31c4.1157 0 7.2437 0.69144 9.3839 2.0743 2.1402 1.35 3.2103 3.8194 3.2103 7.4083 0 2.667-0.70791 4.7907-2.1237 6.3712-1.4158 1.5475-3.3091 2.6505-5.6797 3.3091l9.6802 16.101h-2.3213l-9.2851-15.558h-9.1863v15.558h-1.9262v-35.264zm-0.24695 1.778h-6.0748v16.2h7.4577c2.8646 0 5.1529-0.72437 6.8651-2.1731 1.7122-1.4817 2.5682-3.5725 2.5682-6.2724 0-2.9633-0.889-4.9883-2.667-6.0748-1.778-1.1195-4.4944-1.6792-8.1492-1.6792z" style="color-rendering:auto;color:#000000;dominant-baseline:auto;font-feature-settings:normal;font-variant-alternates:normal;font-variant-caps:normal;font-variant-east-asian:normal;font-variant-ligatures:normal;font-variant-numeric:normal;font-variant-position:normal;font-variation-settings:normal;image-rendering:auto;inline-size:0;isolation:auto;mix-blend-mode:normal;shape-margin:0;shape-padding:0;shape-rendering:auto;solid-color:#000000;stop-color:#000000;text-decoration-color:#000000;text-decoration-line:none;text-decoration-style:solid;text-indent:0;text-orientation:mixed;text-transform:none;white-space:normal"/>
</g>
<g transform="matrix(.27816 0 0 .27816 11.556 8.8025)" style="stroke-width:3.595">
<path transform="rotate(159.1)" d="m-67.201-285.62c10.835 0 19.558 8.8503 19.558 19.844v142.85c0 10.993-8.7228 19.844-19.558 19.844s-19.558-8.8503-19.558-19.844v-142.85c0-10.993 8.7228-19.844 19.558-19.844z" style="color-rendering:auto;color:#000000;dominant-baseline:auto;fill:#000080;font-feature-settings:normal;font-variant-alternates:normal;font-variant-caps:normal;font-variant-east-asian:normal;font-variant-ligatures:normal;font-variant-numeric:normal;font-variant-position:normal;font-variation-settings:normal;image-rendering:auto;inline-size:0;isolation:auto;mix-blend-mode:normal;opacity:.99;shape-margin:0;shape-padding:0;shape-rendering:auto;solid-color:#000000;stop-color:#000000;text-decoration-color:#000000;text-decoration-line:none;text-decoration-style:solid;text-indent:0;text-orientation:mixed;text-transform:none;white-space:normal"/>
<path transform="rotate(159.1)" d="m-165.71-325.92c10.993 0 19.844 8.8503 19.844 19.844v145.52c0 10.993-8.8503 19.844-19.844 19.844s-19.844-8.8503-19.844-19.844v-145.52c0-10.993 8.8503-19.844 19.844-19.844z" style="color-rendering:auto;color:#000000;dominant-baseline:auto;fill:#002b00;font-feature-settings:normal;font-variant-alternates:normal;font-variant-caps:normal;font-variant-east-asian:normal;font-variant-ligatures:normal;font-variant-numeric:normal;font-variant-position:normal;font-variation-settings:normal;image-rendering:auto;inline-size:0;isolation:auto;mix-blend-mode:normal;opacity:.99;shape-margin:0;shape-padding:0;shape-rendering:auto;solid-color:#000000;stop-color:#000000;text-decoration-color:#000000;text-decoration-line:none;text-decoration-style:solid;text-indent:0;text-orientation:mixed;text-transform:none;white-space:normal"/>
<g transform="translate(-3.4288 .035886)" style="stroke-width:3.595">
<path d="m36.714 157.39h244.07c0.73289 0 1.3229 0.59002 1.3229 1.3229 0 0.73289-0.59002 1.3229-1.3229 1.3229h-244.07c-0.7329 0-1.3229-0.59002-1.3229-1.3229 0-0.7329 0.59002-1.3229 1.3229-1.3229z" style="color-rendering:auto;color:#000000;dominant-baseline:auto;fill:#ff0;font-feature-settings:normal;font-variant-alternates:normal;font-variant-caps:normal;font-variant-east-asian:normal;font-variant-ligatures:normal;font-variant-numeric:normal;font-variant-position:normal;font-variation-settings:normal;image-rendering:auto;inline-size:0;isolation:auto;mix-blend-mode:normal;opacity:.99;shape-margin:0;shape-padding:0;shape-rendering:auto;solid-color:#000000;stop-color:#000000;text-decoration-color:#000000;text-decoration-line:none;text-decoration-style:solid;text-indent:0;text-orientation:mixed;text-transform:none;white-space:normal"/>
<path transform="matrix(.44925 0 0 .12831 161.59 138.35)" d="m283.54 158.71c0 2.0581-16.042 11.32-17.824 10.291s-1.7824-19.552 0-20.581c1.7824-1.0291 17.824 8.2326 17.824 10.291z" style="color-rendering:auto;color:#000000;dominant-baseline:auto;fill:#ff0;font-feature-settings:normal;font-variant-alternates:normal;font-variant-caps:normal;font-variant-east-asian:normal;font-variant-ligatures:normal;font-variant-numeric:normal;font-variant-position:normal;font-variation-settings:normal;image-rendering:auto;inline-size:0;isolation:auto;mix-blend-mode:normal;opacity:.99;shape-margin:0;shape-padding:0;shape-rendering:auto;solid-color:#000000;stop-color:#000000;text-decoration-color:#000000;text-decoration-line:none;text-decoration-style:solid;text-indent:0;text-orientation:mixed;text-transform:none;white-space:normal"/>
</g>
<path transform="rotate(21.946)" d="m230.56-15.333c10.993 0 19.844 8.8503 19.844 19.844v145.52c0 10.993-8.8503 19.844-19.844 19.844s-19.844-8.8503-19.844-19.844v-145.52c0-10.993 8.8503-19.844 19.844-19.844z" style="color-rendering:auto;color:#000000;dominant-baseline:auto;fill:#0f0;font-feature-settings:normal;font-variant-alternates:normal;font-variant-caps:normal;font-variant-east-asian:normal;font-variant-ligatures:normal;font-variant-numeric:normal;font-variant-position:normal;font-variation-settings:normal;image-rendering:auto;inline-size:0;isolation:auto;mix-blend-mode:normal;opacity:.99;shape-margin:0;shape-padding:0;shape-rendering:auto;solid-color:#000000;stop-color:#000000;text-decoration-color:#000000;text-decoration-line:none;text-decoration-style:solid;text-indent:0;text-orientation:mixed;text-transform:none;white-space:normal"/>
<path transform="rotate(21.946)" d="m132.86 24.375c10.993 0 19.844 8.8503 19.844 19.844v145.52c0 10.993-8.8503 19.844-19.844 19.844s-19.844-8.8503-19.844-19.844v-145.52c0-10.993 8.8503-19.844 19.844-19.844z" style="color-rendering:auto;color:#000000;dominant-baseline:auto;fill:#00f;font-feature-settings:normal;font-variant-alternates:normal;font-variant-caps:normal;font-variant-east-asian:normal;font-variant-ligatures:normal;font-variant-numeric:normal;font-variant-position:normal;font-variation-settings:normal;image-rendering:auto;inline-size:0;isolation:auto;mix-blend-mode:normal;opacity:.99;shape-margin:0;shape-padding:0;shape-rendering:auto;solid-color:#000000;stop-color:#000000;text-decoration-color:#000000;text-decoration-line:none;text-decoration-style:solid;text-indent:0;text-orientation:mixed;text-transform:none;white-space:normal"/>
</g>
</g>
</g>
</svg>
