<svg width="1200" height="1200" version="1.1" viewBox="0 0 317.5 317.5" xmlns="http://www.w3.org/2000/svg">
<g style="opacity:.99">
<path d="m33.734 7.276h250.03c14.658 0 26.458 11.8 26.458 26.458v250.03c0 14.658-11.8 26.458-26.458 26.458h-250.03c-14.658 0-26.458-11.8-26.458-26.458v-250.03c0-14.658 11.8-26.458 26.458-26.458z" style="color-rendering:auto;color:#000000;dominant-baseline:auto;fill:#fff;font-feature-settings:normal;font-variant-alternates:normal;font-variant-caps:normal;font-variant-east-asian:normal;font-variant-ligatures:normal;font-variant-numeric:normal;font-variant-position:normal;font-variation-settings:normal;image-rendering:auto;inline-size:0;isolation:auto;mix-blend-mode:normal;shape-margin:0;shape-padding:0;shape-rendering:auto;solid-color:#000000;stop-color:#000000;text-decoration-color:#000000;text-decoration-line:none;text-decoration-style:solid;text-indent:0;text-orientation:mixed;text-transform:none;white-space:normal"/>
<path d="m33.734 0c-18.563 0-33.734 15.171-33.734 33.734v250.03c0 18.563 15.171 33.734 33.734 33.734h250.03c18.563 0 33.734-15.171 33.734-33.734v-250.03c0-18.563-15.171-33.734-33.734-33.734h-250.03zm0 14.553h250.03c10.753 0 19.182 8.4288 19.182 19.182v250.03c0 10.753-8.4288 19.182-19.182 19.182h-250.03c-10.753 0-19.182-8.4288-19.182-19.182v-250.03c0-10.753 8.4288-19.182 19.182-19.182z" style="color-rendering:auto;color:#000000;dominant-baseline:auto;font-feature-settings:normal;font-variant-alternates:normal;font-variant-caps:normal;font-variant-east-asian:normal;font-variant-ligatures:normal;font-variant-numeric:normal;font-variant-position:normal;font-variation-settings:normal;image-rendering:auto;inline-size:0;isolation:auto;mix-blend-mode:normal;shape-margin:0;shape-padding:0;shape-rendering:auto;solid-color:#000000;stop-color:#000000;text-decoration-color:#000000;text-decoration-line:none;text-decoration-style:solid;text-indent:0;text-orientation:mixed;text-transform:none;white-space:normal"/>
</g>
<g transform="translate(335.16 -6.4522)">
<g transform="translate(-335.16 6.6101)">
<path transform="rotate(159.1)" d="m-67.201-285.62c10.835 0 19.558 8.8503 19.558 19.844v142.85c0 10.993-8.7228 19.844-19.558 19.844s-19.558-8.8503-19.558-19.844v-142.85c0-10.993 8.7228-19.844 19.558-19.844z" style="color-rendering:auto;color:#000000;dominant-baseline:auto;font-feature-settings:normal;font-variant-alternates:normal;font-variant-caps:normal;font-variant-east-asian:normal;font-variant-ligatures:normal;font-variant-numeric:normal;font-variant-position:normal;font-variation-settings:normal;image-rendering:auto;inline-size:0;isolation:auto;mix-blend-mode:normal;opacity:.99;shape-margin:0;shape-padding:0;shape-rendering:auto;solid-color:#000000;stop-color:#000000;text-decoration-color:#000000;text-decoration-line:none;text-decoration-style:solid;text-indent:0;text-orientation:mixed;text-transform:none;white-space:normal"/>
<path transform="rotate(159.1)" d="m-165.71-325.92c10.993 0 19.844 8.8503 19.844 19.844v145.52c0 10.993-8.8503 19.844-19.844 19.844s-19.844-8.8503-19.844-19.844v-145.52c0-10.993 8.8503-19.844 19.844-19.844z" style="color-rendering:auto;color:#000000;dominant-baseline:auto;font-feature-settings:normal;font-variant-alternates:normal;font-variant-caps:normal;font-variant-east-asian:normal;font-variant-ligatures:normal;font-variant-numeric:normal;font-variant-position:normal;font-variation-settings:normal;image-rendering:auto;inline-size:0;isolation:auto;mix-blend-mode:normal;opacity:.99;shape-margin:0;shape-padding:0;shape-rendering:auto;solid-color:#000000;stop-color:#000000;text-decoration-color:#000000;text-decoration-line:none;text-decoration-style:solid;text-indent:0;text-orientation:mixed;text-transform:none;white-space:normal"/>
<g transform="translate(-3.4288 .035886)">
<path d="m36.714 157.39h244.07c0.73289 0 1.3229 0.59002 1.3229 1.3229 0 0.73289-0.59002 1.3229-1.3229 1.3229h-244.07c-0.7329 0-1.3229-0.59002-1.3229-1.3229 0-0.7329 0.59002-1.3229 1.3229-1.3229z" style="color-rendering:auto;color:#000000;dominant-baseline:auto;fill:#808080;font-feature-settings:normal;font-variant-alternates:normal;font-variant-caps:normal;font-variant-east-asian:normal;font-variant-ligatures:normal;font-variant-numeric:normal;font-variant-position:normal;font-variation-settings:normal;image-rendering:auto;inline-size:0;isolation:auto;mix-blend-mode:normal;opacity:.99;shape-margin:0;shape-padding:0;shape-rendering:auto;solid-color:#000000;stop-color:#000000;text-decoration-color:#000000;text-decoration-line:none;text-decoration-style:solid;text-indent:0;text-orientation:mixed;text-transform:none;white-space:normal"/>
<path transform="matrix(.44925 0 0 .12831 161.59 138.35)" d="m283.54 158.71c0 2.0581-16.042 11.32-17.824 10.291s-1.7824-19.552 0-20.581c1.7824-1.0291 17.824 8.2326 17.824 10.291z" style="color-rendering:auto;color:#000000;dominant-baseline:auto;fill:#808080;font-feature-settings:normal;font-variant-alternates:normal;font-variant-caps:normal;font-variant-east-asian:normal;font-variant-ligatures:normal;font-variant-numeric:normal;font-variant-position:normal;font-variation-settings:normal;image-rendering:auto;inline-size:0;isolation:auto;mix-blend-mode:normal;opacity:.99;shape-margin:0;shape-padding:0;shape-rendering:auto;solid-color:#000000;stop-color:#000000;text-decoration-color:#000000;text-decoration-line:none;text-decoration-style:solid;text-indent:0;text-orientation:mixed;text-transform:none;white-space:normal"/>
</g>
<path transform="rotate(21.946)" d="m230.56-15.333c10.993 0 19.844 8.8503 19.844 19.844v145.52c0 10.993-8.8503 19.844-19.844 19.844s-19.844-8.8503-19.844-19.844v-145.52c0-10.993 8.8503-19.844 19.844-19.844z" style="color-rendering:auto;color:#000000;dominant-baseline:auto;fill:#333;font-feature-settings:normal;font-variant-alternates:normal;font-variant-caps:normal;font-variant-east-asian:normal;font-variant-ligatures:normal;font-variant-numeric:normal;font-variant-position:normal;font-variation-settings:normal;image-rendering:auto;inline-size:0;isolation:auto;mix-blend-mode:normal;opacity:.99;shape-margin:0;shape-padding:0;shape-rendering:auto;solid-color:#000000;stop-color:#000000;text-decoration-color:#000000;text-decoration-line:none;text-decoration-style:solid;text-indent:0;text-orientation:mixed;text-transform:none;white-space:normal"/>
<path transform="rotate(21.946)" d="m132.86 24.375c10.993 0 19.844 8.8503 19.844 19.844v145.52c0 10.993-8.8503 19.844-19.844 19.844s-19.844-8.8503-19.844-19.844v-145.52c0-10.993 8.8503-19.844 19.844-19.844z" style="color-rendering:auto;color:#000000;dominant-baseline:auto;fill:#666;font-feature-settings:normal;font-variant-alternates:normal;font-variant-caps:normal;font-variant-east-asian:normal;font-variant-ligatures:normal;font-variant-numeric:normal;font-variant-position:normal;font-variation-settings:normal;image-rendering:auto;inline-size:0;isolation:auto;mix-blend-mode:normal;opacity:.99;shape-margin:0;shape-padding:0;shape-rendering:auto;solid-color:#000000;stop-color:#000000;text-decoration-color:#000000;text-decoration-line:none;text-decoration-style:solid;text-indent:0;text-orientation:mixed;text-transform:none;white-space:normal"/>
</g>
</g>
</svg>
