<svg width="1200" height="1200" version="1.1" viewBox="0 0 317.5 317.5" xmlns="http://www.w3.org/2000/svg">
<path d="m27.729 0h262.04c15.362 0 27.729 12.367 27.729 27.729v262.04c0 15.362-12.367 27.729-27.729 27.729h-262.04c-15.362 0-27.729-12.367-27.729-27.729v-262.04c0-15.362 12.367-27.729 27.729-27.729z" style="fill:#fff;opacity:.99"/>
<path transform="rotate(159.1)" d="m-67.201-285.62c10.835 0 19.558 8.8503 19.558 19.844v142.85c0 10.993-8.7228 19.844-19.558 19.844s-19.558-8.8503-19.558-19.844v-142.85c0-10.993 8.7228-19.844 19.558-19.844z" style="color-rendering:auto;color:#000000;dominant-baseline:auto;fill:#000080;font-feature-settings:normal;font-variant-alternates:normal;font-variant-caps:normal;font-variant-east-asian:normal;font-variant-ligatures:normal;font-variant-numeric:normal;font-variant-position:normal;font-variation-settings:normal;image-rendering:auto;inline-size:0;isolation:auto;mix-blend-mode:normal;opacity:.99;shape-margin:0;shape-padding:0;shape-rendering:auto;solid-color:#000000;stop-color:#000000;text-decoration-color:#000000;text-decoration-line:none;text-decoration-style:solid;text-indent:0;text-orientation:mixed;text-transform:none;white-space:normal"/>
<path transform="rotate(159.1)" d="m-165.71-325.92c10.993 0 19.844 8.8503 19.844 19.844v145.52c0 10.993-8.8503 19.844-19.844 19.844s-19.844-8.8503-19.844-19.844v-145.52c0-10.993 8.8503-19.844 19.844-19.844z" style="color-rendering:auto;color:#000000;dominant-baseline:auto;fill:#002b00;font-feature-settings:normal;font-variant-alternates:normal;font-variant-caps:normal;font-variant-east-asian:normal;font-variant-ligatures:normal;font-variant-numeric:normal;font-variant-position:normal;font-variation-settings:normal;image-rendering:auto;inline-size:0;isolation:auto;mix-blend-mode:normal;opacity:.99;shape-margin:0;shape-padding:0;shape-rendering:auto;solid-color:#000000;stop-color:#000000;text-decoration-color:#000000;text-decoration-line:none;text-decoration-style:solid;text-indent:0;text-orientation:mixed;text-transform:none;white-space:normal"/>
<g transform="translate(-3.4288 .035886)">
<path d="m36.714 157.39h244.07c0.73289 0 1.3229 0.59002 1.3229 1.3229 0 0.73289-0.59002 1.3229-1.3229 1.3229h-244.07c-0.7329 0-1.3229-0.59002-1.3229-1.3229 0-0.7329 0.59002-1.3229 1.3229-1.3229z" style="color-rendering:auto;color:#000000;dominant-baseline:auto;fill:#ff0;font-feature-settings:normal;font-variant-alternates:normal;font-variant-caps:normal;font-variant-east-asian:normal;font-variant-ligatures:normal;font-variant-numeric:normal;font-variant-position:normal;font-variation-settings:normal;image-rendering:auto;inline-size:0;isolation:auto;mix-blend-mode:normal;opacity:.99;shape-margin:0;shape-padding:0;shape-rendering:auto;solid-color:#000000;stop-color:#000000;text-decoration-color:#000000;text-decoration-line:none;text-decoration-style:solid;text-indent:0;text-orientation:mixed;text-transform:none;white-space:normal"/>
<path transform="matrix(.44925 0 0 .12831 161.59 138.35)" d="m283.54 158.71c0 2.0581-16.042 11.32-17.824 10.291s-1.7824-19.552 0-20.581c1.7824-1.0291 17.824 8.2326 17.824 10.291z" style="color-rendering:auto;color:#000000;dominant-baseline:auto;fill:#ff0;font-feature-settings:normal;font-variant-alternates:normal;font-variant-caps:normal;font-variant-east-asian:normal;font-variant-ligatures:normal;font-variant-numeric:normal;font-variant-position:normal;font-variation-settings:normal;image-rendering:auto;inline-size:0;isolation:auto;mix-blend-mode:normal;opacity:.99;shape-margin:0;shape-padding:0;shape-rendering:auto;solid-color:#000000;stop-color:#000000;text-decoration-color:#000000;text-decoration-line:none;text-decoration-style:solid;text-indent:0;text-orientation:mixed;text-transform:none;white-space:normal"/>
</g>
<path transform="rotate(21.946)" d="m230.56-15.333c10.993 0 19.844 8.8503 19.844 19.844v145.52c0 10.993-8.8503 19.844-19.844 19.844s-19.844-8.8503-19.844-19.844v-145.52c0-10.993 8.8503-19.844 19.844-19.844z" style="color-rendering:auto;color:#000000;dominant-baseline:auto;fill:#0f0;font-feature-settings:normal;font-variant-alternates:normal;font-variant-caps:normal;font-variant-east-asian:normal;font-variant-ligatures:normal;font-variant-numeric:normal;font-variant-position:normal;font-variation-settings:normal;image-rendering:auto;inline-size:0;isolation:auto;mix-blend-mode:normal;opacity:.99;shape-margin:0;shape-padding:0;shape-rendering:auto;solid-color:#000000;stop-color:#000000;text-decoration-color:#000000;text-decoration-line:none;text-decoration-style:solid;text-indent:0;text-orientation:mixed;text-transform:none;white-space:normal"/>
<path transform="rotate(21.946)" d="m132.86 24.375c10.993 0 19.844 8.8503 19.844 19.844v145.52c0 10.993-8.8503 19.844-19.844 19.844s-19.844-8.8503-19.844-19.844v-145.52c0-10.993 8.8503-19.844 19.844-19.844z" style="color-rendering:auto;color:#000000;dominant-baseline:auto;fill:#00f;font-feature-settings:normal;font-variant-alternates:normal;font-variant-caps:normal;font-variant-east-asian:normal;font-variant-ligatures:normal;font-variant-numeric:normal;font-variant-position:normal;font-variation-settings:normal;image-rendering:auto;inline-size:0;isolation:auto;mix-blend-mode:normal;opacity:.99;shape-margin:0;shape-padding:0;shape-rendering:auto;solid-color:#000000;stop-color:#000000;text-decoration-color:#000000;text-decoration-line:none;text-decoration-style:solid;text-indent:0;text-orientation:mixed;text-transform:none;white-space:normal"/>
</svg>
