<svg width="1200" height="628" version="1.1" viewBox="0 0 1200 628" xmlns="http://www.w3.org/2000/svg" xmlns:xlink="http://www.w3.org/1999/xlink">
<defs>
<linearGradient id="linearGradient2289">
<stop style="stop-color:#40a" offset="0"/>
<stop style="stop-color:#40a;stop-opacity:0" offset="1"/>
</linearGradient>
<linearGradient id="linearGradient2291" x1="-.00010338" x2="317.5" y1="83.079" y2="83.079" gradientTransform="matrix(3.7795 0 0 3.7795 .00042763 .0012221)" gradientUnits="userSpaceOnUse" xlink:href="#linearGradient2289"/>
<linearGradient id="linearGradient95494" x1="-.00010338" x2="317.5" y1="83.079" y2="83.079" gradientTransform="matrix(4.8683 0 0 3.7795 -345.65 .001613)" gradientUnits="userSpaceOnUse" xlink:href="#linearGradient2289"/>
</defs>
<rect x=".10001" y=".10081" width="1199.8" height="627.8" style="fill:#fff;stroke-linecap:round;stroke-linejoin:round;stroke-width:.2;stroke:url(#linearGradient2291)"/>
<path d="m891.64.10081c-119.17 48.538-231.71 100.29-246.84 118.63-31.259 37.885-31.812 399.8-.66919 437.73 10.137 12.347 64.396 39.909 134.98 71.439h420.78v-627.8z" style="fill:#00002b;stroke-linecap:round;stroke-linejoin:round;stroke-width:.22699;stroke:url(#linearGradient95494)"/>
<g transform="matrix(3.7795 0 0 3.7795 .00040339 -66.867)" style="fill:#fff">
<g transform="matrix(.26458 0 0 .26458 -39.125 2.5694)" style="shape-inside:url(#rect5106);white-space:pre" aria-label="Salut">
<g transform="translate(0,102.36)">
<g transform="matrix(2.1686 0 0 2.1686 417.08 -105.28)" style="fill:#fff">
<g transform="translate(1.3703 -30.162)" style="fill:#fff">
<g transform="matrix(.52276 0 0 .52276 255.25 114.65)" style="fill:#fff">
<g transform="translate(-10.315)" style="fill:#fff">
<g style="fill:#fff;stroke-width:.26458" aria-label="ZORALAB">
<path d="m116.57 100.74h-24.744v-1.3829l21.632-32.103h-20.398v-1.778h22.916v1.3829l-21.583 32.103h22.176z" style="color-rendering:auto;color:#000000;dominant-baseline:auto;fill:#fff;font-feature-settings:normal;font-variant-alternates:normal;font-variant-caps:normal;font-variant-east-asian:normal;font-variant-ligatures:normal;font-variant-numeric:normal;font-variant-position:normal;font-variation-settings:normal;image-rendering:auto;inline-size:0;isolation:auto;mix-blend-mode:normal;shape-margin:0;shape-padding:0;shape-rendering:auto;solid-color:#000000;stop-color:#000000;text-decoration-color:#000000;text-decoration-line:none;text-decoration-style:solid;text-indent:0;text-orientation:mixed;text-transform:none;white-space:normal"/>
<path d="m155.07 83.054c0 3.556-.5762 6.7004-1.7286 9.4333s-2.8975 4.873-5.2352 6.4206c-2.3048 1.5475-5.2023 2.3213-8.6924 2.3213-3.4572 0-6.3547-.77376-8.6924-2.3213-2.3048-1.5475-4.0334-3.6877-5.1858-6.4206s-1.7286-5.8937-1.7286-9.4827c0-3.556.59267-6.684 1.778-9.3839 1.2182-2.7329 3.0127-4.8566 5.3834-6.3712 2.3707-1.5475 5.2682-2.3213 8.6924-2.3213 4.9389 0 8.7418 1.6134 11.409 4.8401 2.667 3.1938 4.0005 7.6224 4.0005 13.286zm-29.288-.04939c0 3.2267.49389 6.0748 1.4817 8.5443.98777 2.4694 2.4859 4.4121 4.4944 5.8279 2.0414 1.3829 4.6096 2.0743 7.7047 2.0743 3.095 0 5.6468-.69144 7.6553-2.0743 2.0085-1.3829 3.4902-3.2926 4.445-5.7291.98777-2.4694 1.4817-5.334 1.4817-8.5937 0-5.1694-1.1524-9.1863-3.4572-12.051-2.2719-2.8646-5.5809-4.2968-9.9272-4.2968-3.128 0-5.7126.69144-7.7541 2.0743s-3.5725 3.3091-4.5932 5.7785c-1.0207 2.4365-1.5311 5.2517-1.5311 8.4455z" style="color-rendering:auto;color:#000000;dominant-baseline:auto;fill:#fff;font-feature-settings:normal;font-variant-alternates:normal;font-variant-caps:normal;font-variant-east-asian:normal;font-variant-ligatures:normal;font-variant-numeric:normal;font-variant-position:normal;font-variation-settings:normal;image-rendering:auto;inline-size:0;isolation:auto;mix-blend-mode:normal;shape-margin:0;shape-padding:0;shape-rendering:auto;solid-color:#000000;stop-color:#000000;text-decoration-color:#000000;text-decoration-line:none;text-decoration-style:solid;text-indent:0;text-orientation:mixed;text-transform:none;white-space:normal"/>
<path d="m174.11 65.472c4.1157 0 7.2437.69144 9.3839 2.0743 2.1402 1.35 3.2103 3.8194 3.2103 7.4083 0 2.667-.70791 4.7907-2.1237 6.3712-1.4158 1.5475-3.309 2.6505-5.6797 3.3091l9.6802 16.101h-2.3213l-9.2851-15.558h-9.1863v15.558h-1.9262v-35.264zm-.24695 1.778h-6.0748v16.2h7.4577c2.8646 0 5.1529-.72437 6.8651-2.1731 1.7122-1.4817 2.5682-3.5725 2.5682-6.2724 0-2.9633-.889-4.9883-2.667-6.0748-1.778-1.1195-4.4944-1.6792-8.1492-1.6792z" style="color-rendering:auto;color:#000000;dominant-baseline:auto;fill:#fff;font-feature-settings:normal;font-variant-alternates:normal;font-variant-caps:normal;font-variant-east-asian:normal;font-variant-ligatures:normal;font-variant-numeric:normal;font-variant-position:normal;font-variation-settings:normal;image-rendering:auto;inline-size:0;isolation:auto;mix-blend-mode:normal;shape-margin:0;shape-padding:0;shape-rendering:auto;solid-color:#000000;stop-color:#000000;text-decoration-color:#000000;text-decoration-line:none;text-decoration-style:solid;text-indent:0;text-orientation:mixed;text-transform:none;white-space:normal"/>
<path d="m219.48 100.74-4.9389-12.891h-15.064l-5.0377 12.891h-2.0249l13.878-35.362h1.8274l13.384 35.362zm-10.767-28.547c-.16463-.55974-.39511-1.2347-.69144-2.0249-.29633-.82315-.59267-1.6628-.889-2.5188-.23048.79022-.49389 1.5969-.79022 2.4201-.29633.79022-.5762 1.4981-.83961 2.1237l-5.334 13.878h13.681z" style="color-rendering:auto;color:#000000;dominant-baseline:auto;fill:#fff;font-feature-settings:normal;font-variant-alternates:normal;font-variant-caps:normal;font-variant-east-asian:normal;font-variant-ligatures:normal;font-variant-numeric:normal;font-variant-position:normal;font-variation-settings:normal;image-rendering:auto;inline-size:0;isolation:auto;mix-blend-mode:normal;shape-margin:0;shape-padding:0;shape-rendering:auto;solid-color:#000000;stop-color:#000000;text-decoration-color:#000000;text-decoration-line:none;text-decoration-style:solid;text-indent:0;text-orientation:mixed;text-transform:none;white-space:normal"/>
<path d="m229.24 100.74v-35.264h1.9262v33.486h17.187v1.778z" style="color-rendering:auto;color:#000000;dominant-baseline:auto;fill:#fff;font-feature-settings:normal;font-variant-alternates:normal;font-variant-caps:normal;font-variant-east-asian:normal;font-variant-ligatures:normal;font-variant-numeric:normal;font-variant-position:normal;font-variation-settings:normal;image-rendering:auto;inline-size:0;isolation:auto;mix-blend-mode:normal;shape-margin:0;shape-padding:0;shape-rendering:auto;solid-color:#000000;stop-color:#000000;text-decoration-color:#000000;text-decoration-line:none;text-decoration-style:solid;text-indent:0;text-orientation:mixed;text-transform:none;white-space:normal"/>
<path d="m279.1 100.74-4.9389-12.891h-15.064l-5.0377 12.891h-2.025l13.878-35.362h1.8274l13.384 35.362zm-10.767-28.547c-.16463-.55974-.39511-1.2347-.69144-2.0249-.29633-.82315-.59267-1.6628-.889-2.5188-.23049.79022-.4939 1.5969-.79023 2.4201-.29633.79022-.5762 1.4981-.83961 2.1237l-5.334 13.878h13.681z" style="color-rendering:auto;color:#000000;dominant-baseline:auto;fill:#fff;font-feature-settings:normal;font-variant-alternates:normal;font-variant-caps:normal;font-variant-east-asian:normal;font-variant-ligatures:normal;font-variant-numeric:normal;font-variant-position:normal;font-variation-settings:normal;image-rendering:auto;inline-size:0;isolation:auto;mix-blend-mode:normal;shape-margin:0;shape-padding:0;shape-rendering:auto;solid-color:#000000;stop-color:#000000;text-decoration-color:#000000;text-decoration-line:none;text-decoration-style:solid;text-indent:0;text-orientation:mixed;text-transform:none;white-space:normal"/>
<path d="m298.39 65.472c4.3462 0 7.4906.69144 9.4333 2.0743 1.9756 1.3829 2.9633 3.5395 2.9633 6.4699 0 2.0085-.59267 3.77-1.778 5.2846-1.1853 1.4817-2.8975 2.4201-5.1364 2.8152v.09878c2.7658.42804 4.7578 1.3664 5.9761 2.8152 1.2512 1.4487 1.8768 3.342 1.8768 5.6797 0 2.3707-.54328 4.2968-1.6298 5.7785-1.0536 1.4487-2.5188 2.5188-4.3956 3.2103-1.8768.69144-4.0334 1.0372-6.47 1.0372h-10.372v-35.264zm.54328 15.903c3.3914 0 5.8773-.60913 7.4577-1.8274 1.5804-1.2183 2.3707-3.0127 2.3707-5.3834 0-2.4694-.82315-4.231-2.4694-5.2846-1.6463-1.0866-4.2968-1.6298-7.9516-1.6298h-7.5565v14.125zm-8.1492 1.7286v15.903h8.5937c3.3255 0 5.8773-.67498 7.6553-2.0249 1.778-1.3829 2.667-3.4901 2.667-6.3218 0-2.7987-.93839-4.7578-2.8152-5.8773-1.8768-1.1195-4.5438-1.6792-8.001-1.6792z" style="color-rendering:auto;color:#000000;dominant-baseline:auto;fill:#fff;font-feature-settings:normal;font-variant-alternates:normal;font-variant-caps:normal;font-variant-east-asian:normal;font-variant-ligatures:normal;font-variant-numeric:normal;font-variant-position:normal;font-variation-settings:normal;image-rendering:auto;inline-size:0;isolation:auto;mix-blend-mode:normal;shape-margin:0;shape-padding:0;shape-rendering:auto;solid-color:#000000;stop-color:#000000;text-decoration-color:#000000;text-decoration-line:none;text-decoration-style:solid;text-indent:0;text-orientation:mixed;text-transform:none;white-space:normal"/>
</g>
</g>
</g>
</g>
</g>
<g aria-label="MONTEUR">
<path d="m840.07 292.82-16-53.9h-.4q.1 2 .3 5.8.3 3.7.5 8t.2 7.9v32.2h-15.2v-71.4h23l15.9 52.8h.4l16.4-52.8h22.9v71.4h-15.8v-32.6q0-3.4.1-7.5.2-4.2.3-7.9.2-3.8.3-5.8h-.4l-16.5 53.8z"/>
<path d="m970.57 257.02q0 11.1-3.6 19.4-3.6 8.2-11.2 12.8t-19.5 4.6q-11.8 0-19.4-4.6t-11.3-12.9q-3.6-8.3-3.6-19.4t3.6-19.3q3.7-8.2 11.3-12.7 7.6-4.6 19.5-4.6t19.4 4.6q7.6 4.5 11.2 12.8 3.6 8.2 3.6 19.3zm-50.7 0q0 10.5 3.8 16.5 3.9 6 12.6 6 8.9 0 12.6-6 3.8-6 3.8-16.5t-3.8-16.5q-3.7-6.1-12.5-6.1t-12.7 6.1q-3.8 6-3.8 16.5z"/>
<path d="m1050 292.82h-22l-28.8-52.3h-.4q.2 4.3.4 9.6.3 5.2.5 9.7v33h-15.2v-71.4h21.9l28.7 51.7h.3q-.2-4.3-.4-9.2-.2-5-.3-9.4v-33.1h15.3z"/>
<path d="m1096.1 292.82h-17v-57.3h-18.5v-14.1h54v14.1h-18.5z"/>
<path d="m1167 292.82h-41.7v-71.4h41.7v13.8h-24.7v13.7h22.9v13.8h-22.9v16.1h24.7z"/>
<path d="m1240.1 266.12q0 8.2-3.4 14.4-3.3 6.2-10 9.8-6.6 3.5-16.8 3.5-14.4 0-22-7.4t-7.6-20.2v-44.8h17.1v42.9q0 8.2 3.2 11.7 3.3 3.5 9.7 3.5 6.7 0 9.7-3.6 3.1-3.7 3.1-11.7v-42.8h17z"/>
<path d="m1278.4 221.42q28.8 0 28.8 21.3 0 6.9-3.7 11.6-3.6 4.7-9.1 7.4l20.9 31.1h-19.1l-16.1-26.8h-6.7v26.8h-17v-71.4zm-.7 13.4h-4.3v17.9h4.3q6.1 0 9.1-2.2 3.1-2.3 3.1-7.2 0-4.3-2.9-6.4t-9.3-2.1z"/>
</g>
<g aria-label="Do More; Less Noises">
<path d="m831.8 359.77q0 9.6-5.12 14.507-5.0667 4.9067-14.72 4.9067h-9.44v-38.08h10.613q9.0133 0 13.813 4.8 4.8533 4.7467 4.8533 13.867zm-3.2533.10667q0-16.053-16.053-16.053h-6.88v32.64h6.08q16.853 0 16.853-16.587z"/>
<path d="m863.53 364.94q0 4.48-1.4933 7.7867-1.44 3.3067-4.32 5.1733-2.8267 1.8133-6.9333 1.8133-3.9467 0-6.7733-1.8133-2.8267-1.8133-4.3733-5.12-1.4933-3.36-1.4933-7.84 0-6.88 3.4133-10.773t9.44-3.8933q4.0533 0 6.8267 1.8667 2.8267 1.8133 4.2667 5.12 1.44 3.3067 1.44 7.68zm-22.24 0q0 5.4933 2.2933 8.8533 2.3467 3.3067 7.2533 3.3067 4.96 0 7.2533-3.36 2.2933-3.36 2.2933-8.8 0-3.52-.96-6.24t-3.04-4.2667q-2.08-1.5467-5.44-1.5467-4.8 0-7.2533 3.2-2.4 3.2-2.4 8.8533z"/>
<path d="m902.31 379.18-13.653-34.827h-.16q.0533 1.4933.10667 3.4133.10667 1.8667.10667 3.9467v27.467h-2.9333v-38.08h4.6933l13.12 33.333h.16l13.28-33.333h4.5867v38.08h-3.0933v-27.787q0-1.76.0533-3.5733.10667-1.8667.16-3.4133h-.16l-13.76 34.773z"/>
<path d="m955.37 364.94q0 4.48-1.4933 7.7867-1.44 3.3067-4.32 5.1733-2.8267 1.8133-6.9333 1.8133-3.9467 0-6.7733-1.8133-2.8267-1.8133-4.3733-5.12-1.4933-3.36-1.4933-7.84 0-6.88 3.4133-10.773 3.4133-3.8933 9.44-3.8933 4.0533 0 6.8267 1.8667 2.8267 1.8133 4.2667 5.12 1.44 3.3067 1.44 7.68zm-22.24 0q0 5.4933 2.2933 8.8533 2.3467 3.3067 7.2533 3.3067 4.96 0 7.2533-3.36t2.2933-8.8q0-3.52-.96-6.24t-3.04-4.2667q-2.08-1.5467-5.44-1.5467-4.8 0-7.2533 3.2-2.4 3.2-2.4 8.8533z"/>
<path d="m974.79 350.33q2.08 0 3.84.42667l-.48 2.8267q-1.7067-.48-3.52-.48-3.8933 0-6.1867 2.88t-2.2933 7.6267v15.573h-3.04v-28.373h2.56l.32 5.28h.16q1.0667-2.4 3.2533-4.0533 2.1867-1.7067 5.3867-1.7067z"/>
<path d="m993.83 350.28q3.6267 0 6.0267 1.7067 2.4533 1.6533 3.68 4.5867 1.28 2.9333 1.28 6.72v2.08h-20.267q0 5.6533 2.6133 8.6933 2.6667 2.9867 7.5733 2.9867 2.6133 0 4.5867-.42666 1.9733-.48 4.32-1.4933v2.7733q-2.1334.96-4.2134 1.3867-2.08.42667-4.8.42667-6.4 0-9.8133-3.8933t-3.4133-10.613q0-4.32 1.44-7.68 1.4933-3.36 4.2667-5.28 2.7733-1.9733 6.72-1.9733zm-.0533 2.56q-3.8933 0-6.3467 2.6133-2.4 2.6133-2.7733 7.4133h17.013q0-4.48-1.9733-7.2533-1.92-2.7733-5.92-2.7733z"/>
<path d="m1012 352.94q0-2.6133 2.2933-2.6133 2.4 0 2.4 2.6133 0 2.6667-2.4 2.6667-2.2933 0-2.2933-2.6667zm4.0533 20.64q-.64 2.88-1.76 6.24-1.0667 3.4133-2.24 6.24h-2.3467q.96-3.4667 1.6534-6.8267.7466-3.3067 1.1733-6.24h3.2533z"/>
<path d="m1040 379.18v-38.08h3.0933v35.253h17.867v2.8267z"/>
<path d="m1077.6 350.28q3.6267 0 6.0267 1.7067 2.4533 1.6533 3.68 4.5867 1.28 2.9333 1.28 6.72v2.08h-20.267q0 5.6533 2.6134 8.6933 2.6666 2.9867 7.5733 2.9867 2.6133 0 4.5867-.42666 1.9733-.48 4.32-1.4933v2.7733q-2.1334.96-4.2134 1.3867-2.08.42667-4.8.42667-6.4 0-9.8133-3.8933t-3.4133-10.613q0-4.32 1.44-7.68 1.4933-3.36 4.2666-5.28 2.7734-1.9733 6.72-1.9733zm-.053 2.56q-3.8933 0-6.3467 2.6133-2.4 2.6133-2.7733 7.4133h17.013q0-4.48-1.9733-7.2533-1.92-2.7733-5.92-2.7733z"/>
<path d="m1114.1 371.66q0 3.84-2.88 5.9733-2.88 2.08-8.1066 2.08-2.9867 0-5.28-.53333-2.2934-.48-3.84-1.28v-2.9333q1.8666.96 4.2666 1.6 2.4.58667 4.9067.58667 4.16 0 6.0267-1.3867 1.92-1.44 1.92-3.8933 0-2.3467-1.9734-3.5733-1.9733-1.28-5.8133-2.6133-2.6667-.90666-4.6933-1.8133-1.9734-.96-3.0934-2.4t-1.12-3.9467q0-3.4133 2.7734-5.3333 2.7733-1.92 7.4133-1.92 2.56 0 4.7467.48 2.24.48 4.1066 1.28l-1.12 2.5067q-1.6533-.69333-3.7333-1.1733-2.08-.53333-4.16-.53333-3.36 0-5.2267 1.1733-1.8666 1.1733-1.8666 3.4133 0 1.7067.9066 2.72.9067.96 2.6134 1.6533 1.7066.69333 4.16 1.5467 2.56.90666 4.5866 1.8667 2.0267.96 3.2534 2.4533 1.2266 1.4933 1.2266 4z"/>
<path d="m1139.2 371.66q0 3.84-2.88 5.9733-2.88 2.08-8.1066 2.08-2.9867 0-5.28-.53333-2.2933-.48-3.84-1.28v-2.9333q1.8667.96 4.2667 1.6 2.4.58667 4.9066.58667 4.16 0 6.0267-1.3867 1.92-1.44 1.92-3.8933 0-2.3467-1.9734-3.5733-1.9733-1.28-5.8133-2.6133-2.6666-.90666-4.6933-1.8133-1.9733-.96-3.0933-2.4t-1.12-3.9467q0-3.4133 2.7733-5.3333 2.7733-1.92 7.4133-1.92 2.56 0 4.7467.48 2.24.48 4.1066 1.28l-1.12 2.5067q-1.6533-.69333-3.7333-1.1733-2.08-.53333-4.16-.53333-3.36 0-5.2266 1.1733-1.8667 1.1733-1.8667 3.4133 0 1.7067.9067 2.72.9066.96 2.6133 1.6533 1.7066.69333 4.16 1.5467 2.56.90666 4.5866 1.8667 2.0267.96 3.2534 2.4533 1.2266 1.4933 1.2266 4z"/>
<path d="m1189 379.18h-3.3067l-22.08-33.28h-.16q.1067 2.08.16 4.4267.1067 2.2933.1067 4.8v24.053h-2.9333v-38.08h3.3066l22.027 33.173h.16q-.1067-1.6533-.16-4.2133-.053-2.56-.053-4.8v-24.16h2.9333z"/>
<path d="m1222.8 364.94q0 4.48-1.4934 7.7867-1.44 3.3067-4.32 5.1733-2.8266 1.8133-6.9333 1.8133-3.9467 0-6.7733-1.8133-2.8267-1.8133-4.3733-5.12-1.4934-3.36-1.4934-7.84 0-6.88 3.4134-10.773 3.4133-3.8933 9.4399-3.8933 4.0534 0 6.8267 1.8667 2.8267 1.8133 4.2667 5.12 1.44 3.3067 1.44 7.68zm-22.24 0q0 5.4933 2.2933 8.8533 2.3467 3.3067 7.2533 3.3067 4.96 0 7.2534-3.36 2.2933-3.36 2.2933-8.8 0-3.52-.96-6.24t-3.04-4.2667q-2.08-1.5467-5.44-1.5467-4.8 0-7.2533 3.2-2.4 3.2-2.4 8.8533z"/>
<path d="m1232.1 340.3q2.08 0 2.08 2.2933 0 2.3467-2.08 2.3467t-2.08-2.3467q0-2.2933 2.08-2.2933zm1.4933 10.507v28.373h-3.04v-28.373z"/>
<path d="m1260.8 371.66q0 3.84-2.88 5.9733-2.88 2.08-8.1067 2.08-2.9866 0-5.28-.53333-2.2933-.48-3.84-1.28v-2.9333q1.8667.96 4.2667 1.6 2.4.58667 4.9067.58667 4.16 0 6.0266-1.3867 1.92-1.44 1.92-3.8933 0-2.3467-1.9733-3.5733-1.9733-1.28-5.8133-2.6133-2.6667-.90666-4.6934-1.8133-1.9733-.96-3.0933-2.4t-1.12-3.9467q0-3.4133 2.7733-5.3333 2.7734-1.92 7.4134-1.92 2.56 0 4.7466.48 2.24.48 4.1067 1.28l-1.12 2.5067q-1.6533-.69333-3.7333-1.1733-2.08-.53333-4.16-.53333-3.36 0-5.2267 1.1733t-1.8667 3.4133q0 1.7067.9067 2.72.9067.96 2.6133 1.6533 1.7067.69333 4.16 1.5467 2.56.90666 4.5867 1.8667t3.2533 2.4533q1.2267 1.4933 1.2267 4z"/>
<path d="m1278.7 350.28q3.6266 0 6.0266 1.7067 2.4534 1.6533 3.68 4.5867 1.28 2.9333 1.28 6.72v2.08h-20.267q0 5.6533 2.6133 8.6933 2.6667 2.9867 7.5733 2.9867 2.6134 0 4.5867-.42666 1.9733-.48 4.32-1.4933v2.7733q-2.1333.96-4.2133 1.3867-2.08.42667-4.8.42667-6.4 0-9.8134-3.8933-3.4133-3.8933-3.4133-10.613 0-4.32 1.44-7.68 1.4933-3.36 4.2667-5.28 2.7733-1.9733 6.72-1.9733zm-.053 2.56q-3.8933 0-6.3466 2.6133-2.4 2.6133-2.7734 7.4133h17.013q0-4.48-1.9734-7.2533-1.92-2.7733-5.92-2.7733z"/>
<path d="m1315.3 371.66q0 3.84-2.88 5.9733-2.88 2.08-8.1067 2.08-2.9866 0-5.28-.53333-2.2933-.48-3.84-1.28v-2.9333q1.8667.96 4.2667 1.6 2.4.58667 4.9067.58667 4.16 0 6.0266-1.3867 1.92-1.44 1.92-3.8933 0-2.3467-1.9733-3.5733-1.9733-1.28-5.8133-2.6133-2.6667-.90666-4.6934-1.8133-1.9733-.96-3.0933-2.4t-1.12-3.9467q0-3.4133 2.7733-5.3333 2.7734-1.92 7.4134-1.92 2.56 0 4.7466.48 2.24.48 4.1067 1.28l-1.12 2.5067q-1.6533-.69333-3.7333-1.1733-2.08-.53333-4.16-.53333-3.36 0-5.2267 1.1733t-1.8667 3.4133q0 1.7067.9067 2.72.9067.96 2.6133 1.6533 1.7067.69333 4.16 1.5467 2.56.90666 4.5867 1.8667t3.2533 2.4533q1.2267 1.4933 1.2267 4z"/>
</g>
</g>
</g>
</g>
<text style="fill:#ffffff;font-family:'Noto Sans';font-size:13.333px;font-weight:100;line-height:1.25;shape-inside:url(#rect74026);white-space:pre" xml:space="preserve"/>
<text transform="translate(-1.8905 13.956)" x="110.17236" style="font-family:FreeSerif;font-size:31.75px;line-height:1.25;shape-inside:url(#rect1477);white-space:pre" xml:space="preserve"/>
<text style="font-family:FreeSerif;font-size:10.583px;line-height:1.25;shape-inside:url(#rect1483);white-space:pre" xml:space="preserve"/>
<text style="font-family:FreeSerif;font-size:10.583px;line-height:1.25;shape-inside:url(#rect1489);white-space:pre" xml:space="preserve"/>
<text style="font-family:'Noto Sans';font-size:13.333px;font-weight:100;line-height:1.25;shape-inside:url(#rect15891);white-space:pre" xml:space="preserve"/>
<text transform="matrix(.52333 0 0 .52333 -1.5097e-6 -4.071e-6)" style="font-family:FreeSerif;font-size:10.583px;line-height:1.25;shape-inside:url(#rect1483-3);white-space:pre" xml:space="preserve"/>
<text transform="matrix(.52333 0 0 .52333 -1.5097e-6 -4.071e-6)" style="font-family:FreeSerif;font-size:10.583px;line-height:1.25;shape-inside:url(#rect1489-5);white-space:pre" xml:space="preserve"/>
<path d="m.10001.10004v141.76c23.202 10.33 41.251 17.036 48.279 17.043 27.658.02673 225.82-103.09 239.67-124.72 2.8724-4.4842 5.1511-16.995 6.8496-34.086z" style="fill:#fff;stroke-linecap:round;stroke-linejoin:round;stroke-width:.19715;stroke:#b3b3b3"/>
<path d="m.10001 170.75v286.69c12.122-7.9601 20.488-14.412 22.951-18.258 13.855-21.629 14.1-228.25.29688-249.91-2.4776-3.8871-10.956-10.44-23.248-18.529z" style="fill:#fff;stroke-linecap:round;stroke-linejoin:round;stroke-width:.19715;stroke:#008000"/>
<path d="m48.971 469.09c-7.083-.007-25.383 6.7776-48.871 17.199v141.61h294.97c-1.6536-16.846-3.8858-29.173-6.7207-33.621-13.803-21.656-211.72-125.16-239.38-125.19z" style="fill:#fff;stroke-linecap:round;stroke-linejoin:round;stroke-width:.19715;stroke:#40a"/>
<path d="m.051803.052069v141.79c23.206 10.331 41.258 17.039 48.288 17.046 27.663.02674 225.86-103.11 239.71-124.74 2.8729-4.4849 5.152-16.998 6.8508-34.091z" style="fill:#00002b;stroke-linecap:round;stroke-linejoin:round;stroke-width:.10318;stroke:#b3b3b3"/>
<path d="m.051803 170.73v286.74c12.124-7.9613 20.491-14.414 22.955-18.261 13.857-21.632 14.103-228.29.29693-249.94-2.478-3.8877-10.958-10.442-23.252-18.532z" style="fill:#00002b;stroke-linecap:round;stroke-linejoin:round;stroke-width:.10318;stroke:#008000"/>
<path d="m48.931 469.12c-7.0843-.008-25.387 6.7787-48.88 17.202v141.63h295.02c-1.6539-16.849-3.8865-29.178-6.7219-33.626-13.806-21.659-211.76-125.18-239.42-125.2z" style="fill:#00002b;stroke-linecap:round;stroke-linejoin:round;stroke-width:.10318;stroke:#40a"/>
<g transform="matrix(.4017 0 0 .4017 13.624 72.978)">
<circle cx="600" cy="600" r="575.41" style="fill:#fff;stroke-linecap:round;stroke-linejoin:round;stroke-width:49.17;stroke:#000080"/>
<g transform="matrix(5.2461 0 0 5.2461 -241.18 1270.3)">
<g transform="translate(-17.373)">
<g transform="matrix(.26458 0 0 .26458 -9.2764 -276.99)">
<g transform="matrix(2.723 0 0 2.723 -182.29 -406.42)">
<g transform="matrix(1.2062 0 0 1.2062 129.19 165.08)">
<rect transform="rotate(159.1)" x="-86.759" y="-285.62" width="39.116" height="182.54" rx="19.844" ry="19.844" style="fill:#000080;opacity:.99;stroke-linecap:round;stroke-linejoin:round;stroke-width:14.552"/>
<rect transform="rotate(159.1)" x="-185.55" y="-325.92" width="39.688" height="185.21" rx="19.844" ry="19.844" style="fill:#002b00;opacity:.99;stroke-linecap:round;stroke-linejoin:round;stroke-width:14.552"/>
<g transform="translate(-3.4288 .035886)">
<rect x="35.391" y="157.39" width="246.72" height="2.6458" rx="1.3229" ry="1.3229" style="fill:#ff0;opacity:.99;stroke-linecap:round;stroke-linejoin:round;stroke-width:14.552"/>
<path transform="matrix(.44925 0 0 .12831 161.59 138.35)" d="m283.54 158.71c0 2.0581-16.042 11.32-17.824 10.291s-1.7824-19.552 0-20.581c1.7824-1.0291 17.824 8.2326 17.824 10.291z" style="fill:#ff0;opacity:.99;stroke-linecap:round;stroke-linejoin:round;stroke-width:60.611"/>
</g>
<rect transform="rotate(21.946)" x="210.72" y="-15.333" width="39.688" height="185.21" rx="19.844" ry="19.844" style="fill:#0f0;opacity:.99;stroke-linecap:round;stroke-linejoin:round;stroke-width:14.552"/>
<rect transform="rotate(21.946)" x="113.02" y="24.375" width="39.688" height="185.21" rx="19.844" ry="19.844" style="fill:#00f;opacity:.99;stroke-linecap:round;stroke-linejoin:round;stroke-width:14.552"/>
</g>
</g>
</g>
<g transform="matrix(.28965 0 0 .28965 205.9 -252.26)">
<path d="m210.21 51.287c-6.0852-5.1999-15.343-4.0676-20.327 1.7728l-120.08 140.74c-4.9831 5.8405-4.6485 15.167 1.4366 20.367 6.0852 5.1999 15.344 4.0704 20.327-1.7701l120.08-140.74c4.9831-5.8405 4.6483-15.17-1.4368-20.37z" style="color-rendering:auto;color:#000000;dominant-baseline:auto;fill:#000080;font-feature-settings:normal;font-variant-alternates:normal;font-variant-caps:normal;font-variant-east-asian:normal;font-variant-ligatures:normal;font-variant-numeric:normal;font-variant-position:normal;font-variation-settings:normal;image-rendering:auto;inline-size:0;isolation:auto;mix-blend-mode:normal;opacity:.99;shape-margin:0;shape-padding:0;shape-rendering:auto;solid-color:#000000;stop-color:#000000;text-decoration-color:#000000;text-decoration-line:none;text-decoration-style:solid;text-indent:0;text-orientation:mixed;text-transform:none;white-space:normal"/>
<path d="m90.003 47.53c-7.9017 0-14.553 6.6511-14.553 14.553 0 7.9017 6.6511 14.551 14.553 14.551h110.64c7.9017 0 14.551-6.6491 14.551-14.551s-6.6491-14.553-14.551-14.553z" style="color-rendering:auto;color:#000000;dominant-baseline:auto;fill:#00f;font-feature-settings:normal;font-variant-alternates:normal;font-variant-caps:normal;font-variant-east-asian:normal;font-variant-ligatures:normal;font-variant-numeric:normal;font-variant-position:normal;font-variation-settings:normal;image-rendering:auto;inline-size:0;isolation:auto;mix-blend-mode:normal;opacity:.99;shape-margin:0;shape-padding:0;shape-rendering:auto;solid-color:#000000;stop-color:#000000;text-decoration-color:#000000;text-decoration-line:none;text-decoration-style:solid;text-indent:0;text-orientation:mixed;text-transform:none;white-space:normal"/>
<path d="m81.145 188.74c-8.0454 0-14.815 6.6491-14.815 14.551 0 7.9017 6.7701 14.553 14.815 14.553h118.54c8.0454 0 14.815-6.6511 14.815-14.553 0-7.9017-6.7701-14.551-14.815-14.551z" style="color-rendering:auto;color:#000000;dominant-baseline:auto;fill:#00002b;font-feature-settings:normal;font-variant-alternates:normal;font-variant-caps:normal;font-variant-east-asian:normal;font-variant-ligatures:normal;font-variant-numeric:normal;font-variant-position:normal;font-variation-settings:normal;image-rendering:auto;inline-size:0;isolation:auto;mix-blend-mode:normal;opacity:.99;shape-margin:0;shape-padding:0;shape-rendering:auto;solid-color:#000000;stop-color:#000000;text-decoration-color:#000000;text-decoration-line:none;text-decoration-style:solid;text-indent:0;text-orientation:mixed;text-transform:none;white-space:normal"/>
<path d="m117.98 240.87c-8.3489 0-15.376 6.6511-15.376 14.553 0 7.9017 7.0275 14.551 15.376 14.551h117.42c8.3489 0 15.376-6.6491 15.376-14.551 0-7.9017-7.0275-14.553-15.376-14.553z" style="color-rendering:auto;color:#000000;dominant-baseline:auto;fill:#002b00;font-feature-settings:normal;font-variant-alternates:normal;font-variant-caps:normal;font-variant-east-asian:normal;font-variant-ligatures:normal;font-variant-numeric:normal;font-variant-position:normal;font-variation-settings:normal;image-rendering:auto;inline-size:0;isolation:auto;mix-blend-mode:normal;opacity:.99;shape-margin:0;shape-padding:0;shape-rendering:auto;solid-color:#000000;stop-color:#000000;text-decoration-color:#000000;text-decoration-line:none;text-decoration-style:solid;text-indent:0;text-orientation:mixed;text-transform:none;white-space:normal"/>
<path d="m246.28 103.71c-6.0852-5.1999-15.343-4.0676-20.327 1.7728l-120.08 140.74c-4.9831 5.8405-4.6486 15.167 1.4366 20.367 6.0852 5.1999 15.344 4.0704 20.327-1.7701l120.08-140.74c4.9831-5.8405 4.6483-15.17-1.4368-20.37z" style="color-rendering:auto;color:#000000;dominant-baseline:auto;fill:#0f0;font-feature-settings:normal;font-variant-alternates:normal;font-variant-caps:normal;font-variant-east-asian:normal;font-variant-ligatures:normal;font-variant-numeric:normal;font-variant-position:normal;font-variation-settings:normal;image-rendering:auto;inline-size:0;isolation:auto;mix-blend-mode:normal;opacity:.99;shape-margin:0;shape-padding:0;shape-rendering:auto;solid-color:#000000;stop-color:#000000;text-decoration-color:#000000;text-decoration-line:none;text-decoration-style:solid;text-indent:0;text-orientation:mixed;text-transform:none;white-space:normal"/>
</g>
</g>
</g>
<text style="font-family:FreeSerif;font-size:10.583px;line-height:1.25;shape-inside:url(#rect1483-2);white-space:pre" xml:space="preserve"/>
<text style="font-family:FreeSerif;font-size:10.583px;line-height:1.25;shape-inside:url(#rect1489-56);white-space:pre" xml:space="preserve"/>
</g>
</svg>
