<svg width="1200" height="400" version="1.1" viewBox="0 0 317.5 105.83" xmlns="http://www.w3.org/2000/svg">
<text style="font-family:'Noto Sans';font-size:88.194px;font-weight:300;line-height:1.25;shape-inside:url(#rect875);white-space:pre" xml:space="preserve"/>
<text style="font-family:'Noto Sans';font-size:4.2333px;font-weight:300;line-height:1.25;shape-inside:url(#rect881);white-space:pre" xml:space="preserve"/>
<g transform="translate(1.3719)">
<g transform="matrix(.34934 0 0 .34934 .48984 -2.5418)"></g>
<g transform="translate(-.8784)">
<text x="94.46846" y="70.573204" style="font-family:'Noto Sans';font-size:49.389px;font-weight:300;letter-spacing:2.6458px;line-height:1.25;stroke-width:.26458" xml:space="preserve"><tspan x="94.46846" y="70.573204" style="fill:#ffffff;font-family:'Noto Sans';font-size:49.389px;font-weight:200;stroke-width:.26458">ONTEUR</tspan></text>
<g transform="matrix(.27816 0 0 .27816 11.556 8.8025)" style="stroke-width:3.595">
<rect transform="rotate(159.1)" x="-86.759" y="-285.62" width="39.116" height="182.54" rx="19.844" ry="19.844" style="fill:#000080;opacity:.99;stroke-linecap:round;stroke-linejoin:round;stroke-width:52.315"/>
<rect transform="rotate(159.1)" x="-185.55" y="-325.92" width="39.688" height="185.21" rx="19.844" ry="19.844" style="fill:#002b00;opacity:.99;stroke-linecap:round;stroke-linejoin:round;stroke-width:52.315"/>
<g transform="translate(-3.4288 .035886)" style="stroke-width:3.595">
<rect x="35.391" y="157.39" width="246.72" height="2.6458" rx="1.3229" ry="1.3229" style="fill:#ff0;opacity:.99;stroke-linecap:round;stroke-linejoin:round;stroke-width:52.315"/>
<path transform="matrix(.44925 0 0 .12831 161.59 138.35)" d="m283.54 158.71c0 2.0581-16.042 11.32-17.824 10.291s-1.7824-19.552 0-20.581c1.7824-1.0291 17.824 8.2326 17.824 10.291z" style="fill:#ff0;opacity:.99;stroke-linecap:round;stroke-linejoin:round;stroke-width:217.9"/>
</g>
<rect transform="rotate(21.946)" x="210.72" y="-15.333" width="39.688" height="185.21" rx="19.844" ry="19.844" style="fill:#0f0;opacity:.99;stroke-linecap:round;stroke-linejoin:round;stroke-width:52.315"/>
<rect transform="rotate(21.946)" x="113.02" y="24.375" width="39.688" height="185.21" rx="19.844" ry="19.844" style="fill:#00f;opacity:.99;stroke-linecap:round;stroke-linejoin:round;stroke-width:52.315"/>
</g>
</g>
</g>
</svg>
