<svg width="1200" height="628" version="1.1" viewBox="0 0 317.5 166.16" xmlns="http://www.w3.org/2000/svg">
<text style="font-family:'Noto Sans';font-size:88.194px;font-weight:300;line-height:1.25;shape-inside:url(#rect875);white-space:pre" xml:space="preserve"/>
<text style="font-family:'Noto Sans';font-size:4.2333px;font-weight:300;line-height:1.25;shape-inside:url(#rect881);white-space:pre" xml:space="preserve"/>
<g transform="translate(1.3703 -30.162)">
<path d="m5.2428 30.162h304.27c3.6645 0 6.6147 4.6317 6.6147 10.385v145.39c0 5.7533-2.9501 10.385-6.6147 10.385h-304.27c-3.6645 0-6.6147-4.6317-6.6147-10.385v-145.39c0-5.7533 2.9501-10.385 6.6147-10.385z" style="fill:#fff;opacity:.99"/>
<g transform="translate(-10.314 30.163)">
<g transform="matrix(.34934 0 0 .34934 .48984 27.621)">
<g transform="translate(-17.747,-26.062)" style="fill:none;opacity:.99">
<path d="m227.96 77.349c-6.0852-5.1999-15.343-4.0676-20.327 1.7728l-120.08 140.74c-4.9831 5.8405-4.6485 15.167 1.4366 20.367 6.0852 5.1999 15.344 4.0704 20.327-1.7701l120.08-140.74c4.9831-5.8405 4.6483-15.17-1.4368-20.37z" style="color-rendering:auto;color:#000000;dominant-baseline:auto;fill:#000080;font-feature-settings:normal;font-variant-alternates:normal;font-variant-caps:normal;font-variant-east-asian:normal;font-variant-ligatures:normal;font-variant-numeric:normal;font-variant-position:normal;font-variation-settings:normal;image-rendering:auto;inline-size:0;isolation:auto;mix-blend-mode:normal;shape-margin:0;shape-padding:0;shape-rendering:auto;solid-color:#000000;stop-color:#000000;text-decoration-color:#000000;text-decoration-line:none;text-decoration-style:solid;text-indent:0;text-orientation:mixed;text-transform:none;white-space:normal"/>
<path d="m107.75 73.592c-7.9017 0-14.553 6.6511-14.553 14.553 0 7.9017 6.6511 14.551 14.553 14.551h110.64c7.9017 0 14.551-6.6491 14.551-14.551s-6.6491-14.553-14.551-14.553z" style="color-rendering:auto;color:#000000;dominant-baseline:auto;fill:#00f;font-feature-settings:normal;font-variant-alternates:normal;font-variant-caps:normal;font-variant-east-asian:normal;font-variant-ligatures:normal;font-variant-numeric:normal;font-variant-position:normal;font-variation-settings:normal;image-rendering:auto;inline-size:0;isolation:auto;mix-blend-mode:normal;shape-margin:0;shape-padding:0;shape-rendering:auto;solid-color:#000000;stop-color:#000000;text-decoration-color:#000000;text-decoration-line:none;text-decoration-style:solid;text-indent:0;text-orientation:mixed;text-transform:none;white-space:normal"/>
<path d="m98.892 214.8c-8.0454 0-14.815 6.6491-14.815 14.551 0 7.9017 6.7701 14.553 14.815 14.553h118.54c8.0454 0 14.815-6.6511 14.815-14.553 0-7.9017-6.7701-14.551-14.815-14.551z" style="color-rendering:auto;color:#000000;dominant-baseline:auto;fill:#00002b;font-feature-settings:normal;font-variant-alternates:normal;font-variant-caps:normal;font-variant-east-asian:normal;font-variant-ligatures:normal;font-variant-numeric:normal;font-variant-position:normal;font-variation-settings:normal;image-rendering:auto;inline-size:0;isolation:auto;mix-blend-mode:normal;shape-margin:0;shape-padding:0;shape-rendering:auto;solid-color:#000000;stop-color:#000000;text-decoration-color:#000000;text-decoration-line:none;text-decoration-style:solid;text-indent:0;text-orientation:mixed;text-transform:none;white-space:normal"/>
</g>
<path d="m117.98 240.87c-8.3489 0-15.376 6.6511-15.376 14.553 0 7.9017 7.0275 14.551 15.376 14.551h117.42c8.3489 0 15.376-6.6491 15.376-14.551 0-7.9017-7.0275-14.553-15.376-14.553z" style="color-rendering:auto;color:#000000;dominant-baseline:auto;fill:#002b00;font-feature-settings:normal;font-variant-alternates:normal;font-variant-caps:normal;font-variant-east-asian:normal;font-variant-ligatures:normal;font-variant-numeric:normal;font-variant-position:normal;font-variation-settings:normal;image-rendering:auto;inline-size:0;isolation:auto;mix-blend-mode:normal;opacity:.99;shape-margin:0;shape-padding:0;shape-rendering:auto;solid-color:#000000;stop-color:#000000;text-decoration-color:#000000;text-decoration-line:none;text-decoration-style:solid;text-indent:0;text-orientation:mixed;text-transform:none;white-space:normal"/>
<path d="m246.28 103.71c-6.0852-5.1999-15.343-4.0676-20.327 1.7728l-120.08 140.74c-4.9831 5.8405-4.6486 15.167 1.4366 20.367 6.0852 5.1999 15.344 4.0704 20.327-1.7701l120.08-140.74c4.9831-5.8405 4.6483-15.17-1.4368-20.37z" style="color-rendering:auto;color:#000000;dominant-baseline:auto;fill:#0f0;font-feature-settings:normal;font-variant-alternates:normal;font-variant-caps:normal;font-variant-east-asian:normal;font-variant-ligatures:normal;font-variant-numeric:normal;font-variant-position:normal;font-variation-settings:normal;image-rendering:auto;inline-size:0;isolation:auto;mix-blend-mode:normal;opacity:.99;shape-margin:0;shape-padding:0;shape-rendering:auto;solid-color:#000000;stop-color:#000000;text-decoration-color:#000000;text-decoration-line:none;text-decoration-style:solid;text-indent:0;text-orientation:mixed;text-transform:none;white-space:normal"/>
</g>
<g style="stroke-width:.26458" aria-label="ZORALAB">
<path d="m116.57 100.74h-24.744v-1.3829l21.632-32.103h-20.398v-1.778h22.916v1.3829l-21.583 32.103h22.176z" style="color-rendering:auto;color:#000000;dominant-baseline:auto;font-feature-settings:normal;font-variant-alternates:normal;font-variant-caps:normal;font-variant-east-asian:normal;font-variant-ligatures:normal;font-variant-numeric:normal;font-variant-position:normal;font-variation-settings:normal;image-rendering:auto;inline-size:0;isolation:auto;mix-blend-mode:normal;shape-margin:0;shape-padding:0;shape-rendering:auto;solid-color:#000000;stop-color:#000000;text-decoration-color:#000000;text-decoration-line:none;text-decoration-style:solid;text-indent:0;text-orientation:mixed;text-transform:none;white-space:normal"/>
<path d="m155.07 83.054c0 3.556-0.5762 6.7004-1.7286 9.4333s-2.8975 4.873-5.2352 6.4206c-2.3048 1.5475-5.2023 2.3213-8.6924 2.3213-3.4572 0-6.3547-0.77376-8.6924-2.3213-2.3048-1.5475-4.0334-3.6877-5.1858-6.4206s-1.7286-5.8937-1.7286-9.4827c0-3.556 0.59267-6.684 1.778-9.3839 1.2182-2.7329 3.0127-4.8566 5.3834-6.3712 2.3707-1.5475 5.2682-2.3213 8.6924-2.3213 4.9389 0 8.7418 1.6134 11.409 4.8401 2.667 3.1938 4.0005 7.6224 4.0005 13.286zm-29.288-0.04939c0 3.2267 0.49389 6.0748 1.4817 8.5443 0.98777 2.4694 2.4859 4.4121 4.4944 5.8279 2.0414 1.3829 4.6096 2.0743 7.7047 2.0743 3.095 0 5.6468-0.69144 7.6553-2.0743 2.0085-1.3829 3.4902-3.2926 4.445-5.7291 0.98777-2.4694 1.4817-5.334 1.4817-8.5937 0-5.1694-1.1524-9.1863-3.4572-12.051-2.2719-2.8646-5.5809-4.2968-9.9272-4.2968-3.128 0-5.7126 0.69144-7.7541 2.0743s-3.5725 3.3091-4.5932 5.7785c-1.0207 2.4365-1.5311 5.2517-1.5311 8.4455z" style="color-rendering:auto;color:#000000;dominant-baseline:auto;font-feature-settings:normal;font-variant-alternates:normal;font-variant-caps:normal;font-variant-east-asian:normal;font-variant-ligatures:normal;font-variant-numeric:normal;font-variant-position:normal;font-variation-settings:normal;image-rendering:auto;inline-size:0;isolation:auto;mix-blend-mode:normal;shape-margin:0;shape-padding:0;shape-rendering:auto;solid-color:#000000;stop-color:#000000;text-decoration-color:#000000;text-decoration-line:none;text-decoration-style:solid;text-indent:0;text-orientation:mixed;text-transform:none;white-space:normal"/>
<path d="m174.11 65.472c4.1157 0 7.2437 0.69144 9.3839 2.0743 2.1402 1.35 3.2103 3.8194 3.2103 7.4083 0 2.667-0.70791 4.7907-2.1237 6.3712-1.4158 1.5475-3.309 2.6505-5.6797 3.3091l9.6802 16.101h-2.3213l-9.2851-15.558h-9.1863v15.558h-1.9262v-35.264zm-0.24695 1.778h-6.0748v16.2h7.4577c2.8646 0 5.1529-0.72437 6.8651-2.1731 1.7122-1.4817 2.5682-3.5725 2.5682-6.2724 0-2.9633-0.889-4.9883-2.667-6.0748-1.778-1.1195-4.4944-1.6792-8.1492-1.6792z" style="color-rendering:auto;color:#000000;dominant-baseline:auto;font-feature-settings:normal;font-variant-alternates:normal;font-variant-caps:normal;font-variant-east-asian:normal;font-variant-ligatures:normal;font-variant-numeric:normal;font-variant-position:normal;font-variation-settings:normal;image-rendering:auto;inline-size:0;isolation:auto;mix-blend-mode:normal;shape-margin:0;shape-padding:0;shape-rendering:auto;solid-color:#000000;stop-color:#000000;text-decoration-color:#000000;text-decoration-line:none;text-decoration-style:solid;text-indent:0;text-orientation:mixed;text-transform:none;white-space:normal"/>
<path d="m219.48 100.74-4.9389-12.891h-15.064l-5.0377 12.891h-2.0249l13.878-35.362h1.8274l13.384 35.362zm-10.767-28.547c-0.16463-0.55974-0.39511-1.2347-0.69144-2.0249-0.29633-0.82315-0.59267-1.6628-0.889-2.5188-0.23048 0.79022-0.49389 1.5969-0.79022 2.4201-0.29633 0.79022-0.5762 1.4981-0.83961 2.1237l-5.334 13.878h13.681z" style="color-rendering:auto;color:#000000;dominant-baseline:auto;font-feature-settings:normal;font-variant-alternates:normal;font-variant-caps:normal;font-variant-east-asian:normal;font-variant-ligatures:normal;font-variant-numeric:normal;font-variant-position:normal;font-variation-settings:normal;image-rendering:auto;inline-size:0;isolation:auto;mix-blend-mode:normal;shape-margin:0;shape-padding:0;shape-rendering:auto;solid-color:#000000;stop-color:#000000;text-decoration-color:#000000;text-decoration-line:none;text-decoration-style:solid;text-indent:0;text-orientation:mixed;text-transform:none;white-space:normal"/>
<path d="m229.24 100.74v-35.264h1.9262v33.486h17.187v1.778z" style="color-rendering:auto;color:#000000;dominant-baseline:auto;font-feature-settings:normal;font-variant-alternates:normal;font-variant-caps:normal;font-variant-east-asian:normal;font-variant-ligatures:normal;font-variant-numeric:normal;font-variant-position:normal;font-variation-settings:normal;image-rendering:auto;inline-size:0;isolation:auto;mix-blend-mode:normal;shape-margin:0;shape-padding:0;shape-rendering:auto;solid-color:#000000;stop-color:#000000;text-decoration-color:#000000;text-decoration-line:none;text-decoration-style:solid;text-indent:0;text-orientation:mixed;text-transform:none;white-space:normal"/>
<path d="m279.1 100.74-4.9389-12.891h-15.064l-5.0377 12.891h-2.025l13.878-35.362h1.8274l13.384 35.362zm-10.767-28.547c-0.16463-0.55974-0.39511-1.2347-0.69144-2.0249-0.29633-0.82315-0.59267-1.6628-0.889-2.5188-0.23049 0.79022-0.4939 1.5969-0.79023 2.4201-0.29633 0.79022-0.5762 1.4981-0.83961 2.1237l-5.334 13.878h13.681z" style="color-rendering:auto;color:#000000;dominant-baseline:auto;font-feature-settings:normal;font-variant-alternates:normal;font-variant-caps:normal;font-variant-east-asian:normal;font-variant-ligatures:normal;font-variant-numeric:normal;font-variant-position:normal;font-variation-settings:normal;image-rendering:auto;inline-size:0;isolation:auto;mix-blend-mode:normal;shape-margin:0;shape-padding:0;shape-rendering:auto;solid-color:#000000;stop-color:#000000;text-decoration-color:#000000;text-decoration-line:none;text-decoration-style:solid;text-indent:0;text-orientation:mixed;text-transform:none;white-space:normal"/>
<path d="m298.39 65.472c4.3462 0 7.4906 0.69144 9.4333 2.0743 1.9756 1.3829 2.9633 3.5395 2.9633 6.4699 0 2.0085-0.59267 3.77-1.778 5.2846-1.1853 1.4817-2.8975 2.4201-5.1364 2.8152v0.09878c2.7658 0.42804 4.7578 1.3664 5.9761 2.8152 1.2512 1.4487 1.8768 3.342 1.8768 5.6797 0 2.3707-0.54328 4.2968-1.6298 5.7785-1.0536 1.4487-2.5188 2.5188-4.3956 3.2103-1.8768 0.69144-4.0334 1.0372-6.47 1.0372h-10.372v-35.264zm0.54328 15.903c3.3914 0 5.8773-0.60913 7.4577-1.8274 1.5804-1.2183 2.3707-3.0127 2.3707-5.3834 0-2.4694-0.82315-4.231-2.4694-5.2846-1.6463-1.0866-4.2968-1.6298-7.9516-1.6298h-7.5565v14.125zm-8.1492 1.7286v15.903h8.5937c3.3255 0 5.8773-0.67498 7.6553-2.0249 1.778-1.3829 2.667-3.4901 2.667-6.3218 0-2.7987-0.93839-4.7578-2.8152-5.8773-1.8768-1.1195-4.5438-1.6792-8.001-1.6792z" style="color-rendering:auto;color:#000000;dominant-baseline:auto;font-feature-settings:normal;font-variant-alternates:normal;font-variant-caps:normal;font-variant-east-asian:normal;font-variant-ligatures:normal;font-variant-numeric:normal;font-variant-position:normal;font-variation-settings:normal;image-rendering:auto;inline-size:0;isolation:auto;mix-blend-mode:normal;shape-margin:0;shape-padding:0;shape-rendering:auto;solid-color:#000000;stop-color:#000000;text-decoration-color:#000000;text-decoration-line:none;text-decoration-style:solid;text-indent:0;text-orientation:mixed;text-transform:none;white-space:normal"/>
</g>
</g>
</g>
</svg>
