<svg width="1200" height="1200" version="1.1" viewBox="0 0 1200 1200" xmlns="http://www.w3.org/2000/svg">
<circle cx="600" cy="600" r="575.41" style="fill:#fff;stroke-linecap:round;stroke-linejoin:round;stroke-width:49.17;stroke:#000080"/>
<g transform="matrix(5.2461 0 0 5.2461 -241.18 1270.3)">
<g transform="translate(-17.373)">
<g transform="matrix(.26458 0 0 .26458 -9.2764 -276.99)">
<g transform="matrix(2.723 0 0 2.723 -182.29 -406.42)">
<g transform="matrix(1.2062 0 0 1.2062 129.19 165.08)">
<rect transform="rotate(159.1)" x="-86.759" y="-285.62" width="39.116" height="182.54" rx="19.844" ry="19.844" style="fill:#000080;opacity:.99;stroke-linecap:round;stroke-linejoin:round;stroke-width:14.552"/>
<rect transform="rotate(159.1)" x="-185.55" y="-325.92" width="39.688" height="185.21" rx="19.844" ry="19.844" style="fill:#002b00;opacity:.99;stroke-linecap:round;stroke-linejoin:round;stroke-width:14.552"/>
<g transform="translate(-3.4288 .035886)">
<rect x="35.391" y="157.39" width="246.72" height="2.6458" rx="1.3229" ry="1.3229" style="fill:#ff0;opacity:.99;stroke-linecap:round;stroke-linejoin:round;stroke-width:14.552"/>
<path transform="matrix(.44925 0 0 .12831 161.59 138.35)" d="m283.54 158.71c0 2.0581-16.042 11.32-17.824 10.291s-1.7824-19.552 0-20.581c1.7824-1.0291 17.824 8.2326 17.824 10.291z" style="fill:#ff0;opacity:.99;stroke-linecap:round;stroke-linejoin:round;stroke-width:60.611"/>
</g>
<rect transform="rotate(21.946)" x="210.72" y="-15.333" width="39.688" height="185.21" rx="19.844" ry="19.844" style="fill:#0f0;opacity:.99;stroke-linecap:round;stroke-linejoin:round;stroke-width:14.552"/>
<rect transform="rotate(21.946)" x="113.02" y="24.375" width="39.688" height="185.21" rx="19.844" ry="19.844" style="fill:#00f;opacity:.99;stroke-linecap:round;stroke-linejoin:round;stroke-width:14.552"/>
</g>
</g>
</g>
<g transform="matrix(.28965 0 0 .28965 205.9 -252.26)">
<path d="m210.21 51.287c-6.0852-5.1999-15.343-4.0676-20.327 1.7728l-120.08 140.74c-4.9831 5.8405-4.6485 15.167 1.4366 20.367 6.0852 5.1999 15.344 4.0704 20.327-1.7701l120.08-140.74c4.9831-5.8405 4.6483-15.17-1.4368-20.37z" style="color-rendering:auto;color:#000000;dominant-baseline:auto;fill:#000080;font-feature-settings:normal;font-variant-alternates:normal;font-variant-caps:normal;font-variant-east-asian:normal;font-variant-ligatures:normal;font-variant-numeric:normal;font-variant-position:normal;font-variation-settings:normal;image-rendering:auto;inline-size:0;isolation:auto;mix-blend-mode:normal;opacity:.99;shape-margin:0;shape-padding:0;shape-rendering:auto;solid-color:#000000;stop-color:#000000;text-decoration-color:#000000;text-decoration-line:none;text-decoration-style:solid;text-indent:0;text-orientation:mixed;text-transform:none;white-space:normal"/>
<path d="m90.003 47.53c-7.9017 0-14.553 6.6511-14.553 14.553 0 7.9017 6.6511 14.551 14.553 14.551h110.64c7.9017 0 14.551-6.6491 14.551-14.551s-6.6491-14.553-14.551-14.553z" style="color-rendering:auto;color:#000000;dominant-baseline:auto;fill:#00f;font-feature-settings:normal;font-variant-alternates:normal;font-variant-caps:normal;font-variant-east-asian:normal;font-variant-ligatures:normal;font-variant-numeric:normal;font-variant-position:normal;font-variation-settings:normal;image-rendering:auto;inline-size:0;isolation:auto;mix-blend-mode:normal;opacity:.99;shape-margin:0;shape-padding:0;shape-rendering:auto;solid-color:#000000;stop-color:#000000;text-decoration-color:#000000;text-decoration-line:none;text-decoration-style:solid;text-indent:0;text-orientation:mixed;text-transform:none;white-space:normal"/>
<path d="m81.145 188.74c-8.0454 0-14.815 6.6491-14.815 14.551 0 7.9017 6.7701 14.553 14.815 14.553h118.54c8.0454 0 14.815-6.6511 14.815-14.553 0-7.9017-6.7701-14.551-14.815-14.551z" style="color-rendering:auto;color:#000000;dominant-baseline:auto;fill:#00002b;font-feature-settings:normal;font-variant-alternates:normal;font-variant-caps:normal;font-variant-east-asian:normal;font-variant-ligatures:normal;font-variant-numeric:normal;font-variant-position:normal;font-variation-settings:normal;image-rendering:auto;inline-size:0;isolation:auto;mix-blend-mode:normal;opacity:.99;shape-margin:0;shape-padding:0;shape-rendering:auto;solid-color:#000000;stop-color:#000000;text-decoration-color:#000000;text-decoration-line:none;text-decoration-style:solid;text-indent:0;text-orientation:mixed;text-transform:none;white-space:normal"/>
<path d="m117.98 240.87c-8.3489 0-15.376 6.6511-15.376 14.553 0 7.9017 7.0275 14.551 15.376 14.551h117.42c8.3489 0 15.376-6.6491 15.376-14.551 0-7.9017-7.0275-14.553-15.376-14.553z" style="color-rendering:auto;color:#000000;dominant-baseline:auto;fill:#002b00;font-feature-settings:normal;font-variant-alternates:normal;font-variant-caps:normal;font-variant-east-asian:normal;font-variant-ligatures:normal;font-variant-numeric:normal;font-variant-position:normal;font-variation-settings:normal;image-rendering:auto;inline-size:0;isolation:auto;mix-blend-mode:normal;opacity:.99;shape-margin:0;shape-padding:0;shape-rendering:auto;solid-color:#000000;stop-color:#000000;text-decoration-color:#000000;text-decoration-line:none;text-decoration-style:solid;text-indent:0;text-orientation:mixed;text-transform:none;white-space:normal"/>
<path d="m246.28 103.71c-6.0852-5.1999-15.343-4.0676-20.327 1.7728l-120.08 140.74c-4.9831 5.8405-4.6486 15.167 1.4366 20.367 6.0852 5.1999 15.344 4.0704 20.327-1.7701l120.08-140.74c4.9831-5.8405 4.6483-15.17-1.4368-20.37z" style="color-rendering:auto;color:#000000;dominant-baseline:auto;fill:#0f0;font-feature-settings:normal;font-variant-alternates:normal;font-variant-caps:normal;font-variant-east-asian:normal;font-variant-ligatures:normal;font-variant-numeric:normal;font-variant-position:normal;font-variation-settings:normal;image-rendering:auto;inline-size:0;isolation:auto;mix-blend-mode:normal;opacity:.99;shape-margin:0;shape-padding:0;shape-rendering:auto;solid-color:#000000;stop-color:#000000;text-decoration-color:#000000;text-decoration-line:none;text-decoration-style:solid;text-indent:0;text-orientation:mixed;text-transform:none;white-space:normal"/>
</g>
</g>
</g>
<text style="font-family:FreeSerif;font-size:10.583px;line-height:1.25;shape-inside:url(#rect1483);white-space:pre" xml:space="preserve"/>
<text style="font-family:FreeSerif;font-size:10.583px;line-height:1.25;shape-inside:url(#rect1489);white-space:pre" xml:space="preserve"/>
</svg>
